<svg xmlns="http://www.w3.org/2000/svg" width="150" height="24" viewBox="0 0 153.4668 24.665218" fill="#fff">
  <g style="line-height:1.25;font-variant-ligatures:normal;font-variant-position:normal;font-variant-caps:normal;font-variant-numeric:normal;font-variant-alternates:normal;font-variant-east-asian:normal;font-feature-settings:normal;font-variation-settings:normal;text-indent:0;text-align:start;text-decoration-line:none;text-decoration-style:solid;text-decoration-color:#000;text-transform:none;text-orientation:mixed;white-space:normal;shape-padding:0;shape-margin:0;inline-size:0" aria-label="PHOENIX" font-weight="700" font-size="144" font-family="Alegreya Sans" stroke-width=".999999">
    <path style="-inkscape-font-specification:'Alegreya Sans Bold'" d="M9.4107005.0907186q3.8481 0 5.9055 1.9431 2.0954999 1.9431 2.0954999 5.5626 0 2.7812999-1.2192 4.8767999-1.2192 2.0574-3.5052 3.2004-2.2479 1.1429999-5.2958999 1.1429999h-2.4384v.0762l.2286 7.7723999H6e-7l.2667-7.3151999L6e-7.1288186zm-.8763 12.9539998q3.5052-.9906 3.5052-4.9910999 0-2.0574-1.0668-3.048-1.0287-1.0287-3.2004-1.1049l-2.5908.1524-.1524 8.8392zM41.5188798 16.8928184l.1524 7.7723999h-5.1435l.2286-7.3151999-.0381-2.8575-5.5245-.0381-4.9910998.0762-.0381 2.3622.1905 7.7723999h-5.1435l.2667-7.3151999-.2667-17.2211998h5.2197l-.1524 10.1345999 5.2577999.0762 5.1435-.0762-.1524-10.1345999h5.2577999zM91.6304994 20.3980184l.3048.4191-.3429 3.8480999H76.1999996l.2667-7.3151999-.2667-17.2211998h15.5447998l.3048.4191-.381 3.8481-5.8673999-.1905-4.4196.0381-.1143 5.9054999 4.2291.0762 4.0005-.1143.3048.381-.3429 3.8481-4.3434-.1143-3.9243.0381-.0381 2.6288999.1143 3.6957 4.3053.0381zM115.8912695 17.0833184l.1905 7.5818999h-5.5626L100.4988696 8.0536185h-.3048l-.0381 8.1534.1524 8.4581998h-4.6862999l.2667-7.239-.2286-17.2973997h5.5245l10.0202998 16.6115998h.3429l-.1143-16.3829998 4.7625-.3048zM127.0664756 16.8928184l.2286 7.7723999h-5.1816l.2667-7.3151999-.2667-17.2211998h5.2578zM145.5419988 11.8255185l7.9247999 12.8396998h-6.2103l-1.143-2.4384-4.0766999-6.3626999-4.4196 6.6294-1.1049 2.1716999h-5.3339999l7.8486-12.1157998-7.7724-12.4205999h6.2103l1.143 2.4765 3.8480999 5.9817 4.0005-6.1722 1.0287-2.286h5.4863999z"/>
  </g>
  <path d="M53.690689.015479c-.02373.0067-.152411.04724-.287892.08959-2.492798.778922-4.577464 2.877772-5.588474 5.631711-.78408 2.13145-.826414 4.460066-.116846 6.443233.140558.391087.391194.933729.582553 1.262895.05247.09122.09314.167845.08806.172733-.01183.01136-.348855-.334054-.489413-.501899-.922946-1.106463-1.56477-2.925037-1.666382-4.730574l-.01183-.211849-.04064.138517c-.254024.87507-.411513 1.711023-.482644 2.55024-.02711.334064-.02711 1.217275 0 1.523626.0288.298211.07791.64693.132093.923952.406435 2.074418 1.637594 3.822922 3.537677 5.027159.138861.08795.255714.164582.260792.167844.01183.01299-.160877-.03907-.521591-.158068-1.224384-.400874-1.740896-.723525-2.530054-1.577406l-.09822-.105915.04571.114065c.591025 1.525252 1.632509 2.939711 2.87214 3.897881 1.055035.814775 2.318365 1.350892 3.583392 1.522.07621.0097.138868.0228.138868.02771 0 .0048-.165962.0029-.367482-.0019-.46232-.01299-1.027941-.07006-1.825571-.185773-.157496-.0228-.350551-.05052-.428451-.06034-.07621-.01136-.138861-.01963-.138861-.01627 0 .0019.08975.07496.19983.164584 1.244702 1.010324 2.684156 1.790882 4.260788 2.312334.120233.03907.221845.06842.226923.0636.0169-.01627-.03388-.392723-.07282-.537754-.07451-.28191-.176118-.490497-.355629-.733291-.05247-.06842-.09145-.12874-.08806-.133628.01014-.0086.487722.154806.74852.255843.121931.04724.360708.149909.531747.229766l.311605.14503-.01014-.05379c-.193055-1.047794-.247249-1.53503-.260799-2.361217-.01014-.584999.0068-.97447.06437-1.447041.04909-.409014.05247-.439969.06605-.439969.0052 0 .03218.08314.0593.18251.37256 1.427478.977135 2.692009 1.767988 3.695818.323451.412266.821335.923942 1.195595 1.230304l.15241.123841.0118-.436717c.0118-.475822.0474-.930466.0999-1.324825.16596-1.246595.56223-2.426399 1.11092-3.299834l.1321-.211839.003.195549c.0288 1.47637.37765 3.019549.96529 4.269415.0508.107551.10838.231392.12701.27376.0204.04234.044.07496.0542.07168.0101-.0048.0948-.06197.18797-.130366.442-.31938.968672-.581748 1.556309-.77566.11007-.03743.20491-.06351.20999-.06033.003.0048-.022.04397-.0593.08641-.0948.109176-.22015.298201-.27604.41879-.10838.22813-.186277.552418-.186277.772398 0 .08314.002.08641.0389.07659 1.666378-.469308 3.329365-1.326452 4.667215-2.403575.10669-.08478.21338-.171107.23709-.189033l.0423-.03426-.15072.02117c-.88908.130356-1.50042.20369-1.93903.234655-.23201.01626-.68925.0228-.6757.0086.005-.0029.11008-.02117.2337-.03907 1.91363-.283546 3.6867-1.350902 4.98391-3.003258.55377-.703962 1.01609-1.507325 1.3497-2.343289l.0677-.171098-.1033.114065c-.75699.822925-1.32938 1.179786-2.51143 1.565994-.38951.127103-.54192.171108-.52329.15318.008-.0077.1033-.06842.20999-.133628.86537-.532864 1.67994-1.277569 2.26757-2.072781.83997-1.137427 1.31245-2.428025 1.44285-3.945137.0271-.314502.0288-1.096686.002-1.442153-.061-.778922-.21338-1.619764-.43862-2.424763l-.0813-.288425-.0118.130356c-.007.07168-.0237.268882-.0389.439979-.0999 1.135792-.45047 2.357955-.95343 3.324275-.25572.493759-.60458.979358-.96867 1.349266-.19306.197185-.24217.226514-.16765.105925.0305-.04724.11345-.200437.18458-.338943.69264-1.326452 1.00592-2.773492.94665-4.378602-.0796-2.134703-.87044-4.266153-2.19814-5.911994-1.03809-1.290598-2.33699-2.225963-3.795077-2.734377-.25402-.08959-.558837-.180884-.569007-.171107-.003.0048.0796.07659.184587.161321.977137.788708 1.795087 1.927761 2.314987 3.233034.34377.860395.56054 1.779459.65537 2.765342.0373.376422.0406 1.352518.008 1.724053-.23878 2.703421-1.46994 4.973377-3.466544 6.395976-.672307.479086-1.422518.855518-2.25402 1.13253-.23369.07823-.95682.280284-.96698.270508-.003-.0029.0118-.07496.0356-.158059.0593-.210213.12193-.534491.1575-.822926.0423-.340579.0406-1.168383-.002-1.51385-.0644-.539379-.1829-1.010314-.3387-1.367193-.0152-.03426-.0271-.06842-.0271-.07496 0-.0077.044.0067.0982.03262.15241.07168.37765.143405.56732.180885.22184.04561.62659.04888.83319.0077.276032-.05543.548692-.16133.756979-.291686l.0813-.05215-.182887-.03426c-.32515-.0636-.557162-.145031-.726512-.255844-.11176-.07168-.1287-.09286-.0728-.09286.0627 0 .24387-.06515.369182-.133619.0661-.03743.12193-.07168.12193-.07823 0-.0048-.0711-.03426-.15579-.0636-.450472-.156443-.806102-.397611-1.226082-.832702-.547-.567083-1.03811-.876696-1.71381-1.082021-.43861-.131992-.79424-.180883-1.33277-.179248-.464012.0019-.71803.03099-1.14309.130366-.37087.08795-.944964.296575-.90432.329166.0085.0077.09484.06842.193055.133618.501272.340579.972057.787072 1.253171 1.191207.28959.412277.457242.909278.457242 1.350893 0 .405762-.135481.894623-.374257 1.354155-.191365.368281-.343774.598038-.734969 1.106462-.601187.780548-.823033 1.197712-1.053344 1.983158-.04402.154806-.08637.28191-.09144.28191-.02204 0-.05247-.223242-.06099-.45627-.01014-.293323.0169-.513312.09822-.790334.02711-.09613.0474-.177621.04571-.179248-.0033-.0019-.0779-.03099-.165961-.06515-.228621-.08631-.596103-.255833-.87553-.402499-.994066-.52308-1.87637-1.259643-2.560535-2.139591-1.656222-2.13145-2.24555-5.092341-1.5834-7.952194.430141-1.85442 1.441151-3.544264 2.743434-4.585544.211683-.171107.204908-.164583.176118-.162957-.01352 0-.04402.0067-.06774.01472z"/>
</svg>